<?xml version="1.0" encoding="utf-8"?>
<!-- Generator: Adobe Adobe Illustrator 29.2.0, SVG Export Plug-In . SVG Version: 6.00 Build 0)  -->
<svg version="1.1" id="Layer_1" xmlns="http://www.w3.org/2000/svg" xmlns:xlink="http://www.w3.org/1999/xlink" x="0px" y="0px"
	 width="4905.75px" height="3220.73px" viewBox="0 0 4905.75 3220.73" style="enable-background:new 0 0 4905.75 3220.73;"
	 xml:space="preserve">
<style type="text/css">
	.st0{fill:#ED1C24;}
</style>
<g>
	<rect x="1676.58" y="269.93" class="st0" width="277.49" height="268.44"/>
	<rect x="4628.23" y="269.93" class="st0" width="277.49" height="268.44"/>
	<path d="M1676.61,683.13h277.26v1045.83h-277.26V683.13z"/>
	<path d="M2761.17,1602.81c0,0-134.55,126.14-313.95,126.14c-214.06,0-364.92-112.13-364.92-320.07
		c0-230.37,187.56-303.76,419.96-336.38c173.29-24.46,256.37-29.4,252.79-118.24c-2.3-57.04-65.14-88.86-175.74-88.86
		c-117.58,0-195.6,35.43-198.29,111.29h-249.8c8.15-183.48,144.74-306.34,450.54-306.34c313.95,0,440.35,102.47,440.35,347.11
		v711.49h-260.95V1602.81z M2761.17,1335.5v-156.98c-48.93,28.54-124.36,44.85-193.67,61.16c-144.74,32.62-216.1,65.24-216.1,163.09
		c0,97.86,65.24,132.51,163.09,132.51C2673.5,1535.28,2761.17,1437.43,2761.17,1335.5z"/>
	<path d="M3465.5,849.6L3465.5,849.6c63.2-118.24,140.67-179.4,262.98-179.4c30.58,0,65.24,0.7,65.24,0.7v250.06h-6.12
		c-181.44-18.35-311.91,77.47-311.91,297.64v509.66h-277.25V682.43h267.06V849.6z"/>
	<path d="M4180.01,850.29L4180.01,850.29c63.2-118.24,140.67-179.4,262.98-179.4c30.58,0,65.24,0,65.24,0v250.75h-6.12
		c-181.44-18.35-311.91,77.47-311.91,297.64v509.66h-277.25V683.13h267.06V850.29z"/>
	<path d="M4628.5,683.13h277.26v1045.83H4628.5V683.13z"/>
	<g>
		<path d="M1450.55,999.45c-26.19-50.73-61-96.44-102.34-134.97c41.35-38.66,76.15-84.37,102.34-135.09
			c35.71-68.72,55.87-146.8,55.87-229.65c0-276-223.73-499.73-499.87-499.73H277.3v270.1h730.41
			c126.77,0,229.52,102.88,229.52,229.64c0,126.9-102.75,229.65-229.52,229.65H0v270.1h1007.71c0.14,0,0.27-0.01,0.41-0.01
			c126.58,0.22,229.11,102.99,229.11,229.62c0,126.9-102.75,229.64-229.51,229.64H0v270.23h1006.55
			c193.29,0,361.03-109.68,444.13-270.23c35.58-68.84,55.74-146.93,55.74-229.64C1506.42,1146.24,1486.26,1068.16,1450.55,999.45z"
			/>
		<rect x="0" y="269.93" width="277.49" height="268.44"/>
	</g>
	<g>
		<path d="M0,2364.17c0-108.5,71.36-158.75,150-158.75h42.24c66.99,0,125.97,39.32,135.45,124.52h-68.46
			c-8-38.6-32.76-61.9-88.1-61.9c-79.38,0-105.59,42.24-105.59,107.78v32.03c0,65.54,26.21,107.78,105.59,107.78
			c60.43,0,84.46-26.94,90.29-70.64h67.72c-6.54,91.02-66.99,133.26-136.89,133.26H150c-78.64,0-150-50.25-150-158.75V2364.17z"/>
		<path d="M725.97,2364.17v55.34c0,108.5-71.36,158.75-153.65,158.75H530.1c-82.29,0-153.65-50.25-153.65-158.75v-55.34
			c0-108.5,71.36-158.75,153.65-158.75h42.23C654.61,2205.42,725.97,2255.67,725.97,2364.17z M660.43,2375.82
			c0-65.54-26.21-107.78-109.23-107.78s-109.23,42.24-109.23,107.78v32.03c0,65.54,26.21,107.78,109.23,107.78
			s109.23-42.24,109.23-107.78V2375.82z"/>
		<path d="M1336.17,2349.6v217h-65.54v-205.35c0-65.53-32.03-93.21-78.64-93.21c-36.41,0-84.47,26.22-84.47,115.79v182.77h-65.53
			v-205.35c0-65.53-32.05-93.21-78.65-93.21c-36.4,0-84.46,26.22-84.46,115.79v182.77h-65.54v-349.53h65.54v49.52
			c23.3-36.41,64.08-61.17,105.59-61.17c35.68,0,89.56,21.12,112.13,81.56c20.39-47.33,67.73-81.56,116.51-81.56
			C1258.98,2205.42,1336.17,2241.1,1336.17,2349.6z"/>
		<path d="M1968.19,2349.6v217h-65.54v-205.35c0-65.53-32.03-93.21-78.64-93.21c-36.41,0-84.48,26.22-84.48,115.79v182.77h-65.53
			v-205.35c0-65.53-32.05-93.21-78.65-93.21c-36.4,0-84.46,26.22-84.46,115.79v182.77h-65.54v-349.53h65.54v49.52
			c23.3-36.41,64.08-61.17,105.59-61.17c35.68,0,89.56,21.12,112.13,81.56c20.39-47.33,67.73-81.56,116.51-81.56
			C1891,2205.42,1968.19,2241.1,1968.19,2349.6z"/>
		<path d="M2397.79,2364.17v40.05h-286.18v3.64c0,65.54,28.4,107.78,111.41,107.78c61.17,0,91.75-23.3,103.4-61.9h68.45
			c-13.1,85.2-77.91,124.52-150.73,124.52h-42.23c-85.93,0-153.65-49.52-153.65-158.75v-55.34c0-108.5,78.64-158.75,160.92-158.75
			h27.68C2319.15,2205.42,2397.79,2255.67,2397.79,2364.17z M2113.07,2350.33h219.91c-5.83-50.97-32.03-82.29-109.95-82.29
			C2145.1,2268.04,2118.89,2299.36,2113.07,2350.33z"/>
		<path d="M2718.9,2217.07v62.62h-70.64c-36.41,0-97.57,33.5-97.57,123.06v163.84h-65.54v-349.53h65.54v64.81
			c23.3-36.41,72.81-64.81,118.69-64.81H2718.9z"/>
		<path d="M2758.93,2364.17c0-108.5,71.36-158.75,150-158.75h42.24c66.99,0,125.97,39.32,135.45,124.52h-68.46
			c-8-38.6-32.76-61.9-88.1-61.9c-79.38,0-105.59,42.24-105.59,107.78v32.03c0,65.54,26.21,107.78,105.59,107.78
			c60.43,0,84.46-26.94,90.29-70.64h67.72c-6.54,91.02-66.99,133.26-136.89,133.26h-42.24c-78.64,0-150-50.25-150-158.75V2364.17z"
			/>
		<path d="M3152.86,2082.35c0-24.03,19.65-44.42,43.69-44.42s43.7,20.38,43.7,44.42s-19.67,42.97-43.7,42.97
			S3152.86,2106.39,3152.86,2082.35z M3163.78,2217.07h65.54v349.53h-65.54V2217.07z"/>
		<path d="M3671.3,2503.98v62.62c-33.49,0-73.54-0.73-88.1-37.87c-24.76,37.87-79.38,48.79-124.52,48.79
			c-67.73,0-139.08-26.21-139.08-115.05v-8.01c0-64.08,53.89-109.22,139.08-109.22h118.69c-1.45-48.79-11.65-77.19-76.45-77.19
			h-43.7c-36.41,0-62.62,20.39-62.62,43.7h-65.54c0-53.16,50.24-106.32,121.61-106.32h71.36c64.81,0,120.88,35.68,120.88,144.18
			v127.44C3642.9,2499.61,3658.2,2503.98,3671.3,2503.98z M3577.36,2458.1v-57.53h-97.57c-81.56,0-94.66,35.68-94.66,58.98
			c0,40.78,26.21,55.34,94.66,55.34C3508.92,2514.9,3577.36,2504.7,3577.36,2458.1z"/>
		<path d="M3802.36,2037.94v528.66h-65.54v-528.66H3802.36z"/>
		<path d="M551.96,2992.08v217h-65.53v-205.35c0-65.53-32.05-93.21-78.65-93.21c-36.41,0-84.46,26.22-84.46,115.79v182.77h-65.54
			v-205.35c0-65.53-32.05-93.21-78.65-93.21c-36.41,0-84.46,26.22-84.46,115.79v182.77H29.13v-349.53h65.54v49.52
			c23.3-36.41,64.08-61.17,105.59-61.17c35.67,0,89.56,21.12,112.13,81.56c20.39-47.33,67.73-81.56,116.51-81.56
			C474.78,2847.9,551.96,2883.58,551.96,2992.08z"/>
		<path d="M991.02,3146.46v62.62c-33.49,0-73.54-0.73-88.11-37.87c-24.75,37.87-79.37,48.79-124.51,48.79
			c-67.72,0-139.08-26.21-139.08-115.05v-8.01c0-64.08,53.88-109.22,139.08-109.22h118.7c-1.46-48.79-11.65-77.19-76.46-77.19h-43.7
			c-36.41,0-62.62,20.39-62.62,43.7h-65.54c0-53.16,50.25-106.32,121.61-106.32h71.36c64.81,0,120.88,35.68,120.88,144.18v127.44
			C962.62,3142.09,977.92,3146.46,991.02,3146.46z M897.09,3100.58v-57.53h-97.59c-81.56,0-94.67,35.68-94.67,58.98
			c0,40.78,26.22,55.34,94.67,55.34C828.63,3157.38,897.09,3147.18,897.09,3100.58z"/>
		<path d="M1151.92,2922.17v131.08c0,58.25,18.21,93.21,76.46,93.21h21.84v62.62h-42.96c-64.81,0-120.88-35.68-120.88-144.18
			v-142.73h-51.7v-62.62h51.7v-179.13h65.53v179.13h98.3v62.62H1151.92z"/>
		<path d="M1657.27,2992.08v217h-65.54v-205.35c0-65.53-26.22-93.21-87.38-93.21c-36.41,0-97.57,26.22-97.57,115.79v182.77h-65.54
			v-528.66h65.54v230.1c26.21-37.14,76.46-62.62,118.69-62.62C1585.9,2847.9,1657.27,2883.58,1657.27,2992.08z"/>
		<path d="M2086.87,3006.65v40.05h-286.18v3.64c0,65.54,28.4,107.78,111.41,107.78c61.16,0,91.75-23.3,103.4-61.9h68.46
			c-13.11,85.2-77.92,124.52-150.74,124.52h-42.23c-85.93,0-153.65-49.52-153.65-158.75v-55.34c0-108.5,78.65-158.75,160.92-158.75
			h27.68C2008.22,2847.9,2086.87,2898.15,2086.87,3006.65z M1802.15,2992.81h219.91c-5.83-50.97-32.03-82.29-109.95-82.29
			C1834.19,2910.52,1807.98,2941.84,1802.15,2992.81z"/>
		<path d="M2697.07,2992.08v217h-65.53v-205.35c0-65.53-32.05-93.21-78.65-93.21c-36.41,0-84.46,26.22-84.46,115.79v182.77h-65.54
			v-205.35c0-65.53-32.05-93.21-78.65-93.21c-36.41,0-84.46,26.22-84.46,115.79v182.77h-65.54v-349.53h65.54v49.52
			c23.3-36.41,64.08-61.17,105.59-61.17c35.67,0,89.56,21.12,112.13,81.56c20.39-47.33,67.73-81.56,116.51-81.56
			C2619.89,2847.9,2697.07,2883.58,2697.07,2992.08z"/>
		<path d="M3136.12,3146.46v62.62c-33.49,0-73.54-0.73-88.11-37.87c-24.75,37.87-79.37,48.79-124.51,48.79
			c-67.72,0-139.08-26.21-139.08-115.05v-8.01c0-64.08,53.88-109.22,139.08-109.22h118.7c-1.46-48.79-11.65-77.19-76.46-77.19h-43.7
			c-36.41,0-62.62,20.39-62.62,43.7h-65.54c0-53.16,50.25-106.32,121.61-106.32h71.36c64.81,0,120.88,35.68,120.88,144.18v127.44
			C3107.72,3142.09,3123.02,3146.46,3136.12,3146.46z M3042.19,3100.58v-57.53h-97.59c-81.56,0-94.67,35.68-94.67,58.98
			c0,40.78,26.22,55.34,94.67,55.34C2973.74,3157.38,3042.19,3147.18,3042.19,3100.58z"/>
		<path d="M3297.02,2922.17v131.08c0,58.25,18.21,93.21,76.46,93.21h21.84v62.62h-42.96c-64.81,0-120.88-35.68-120.88-144.18
			v-142.73h-51.7v-62.62h51.7v-179.13h65.53v179.13h98.3v62.62H3297.02z"/>
		<path d="M3471.05,2724.84c0-24.03,19.65-44.42,43.69-44.42s43.7,20.38,43.7,44.42s-19.67,42.97-43.7,42.97
			S3471.05,2748.87,3471.05,2724.84z M3481.97,2859.55h65.53v349.53h-65.53V2859.55z"/>
		<path d="M3630.5,3006.65c0-108.5,71.36-158.75,150-158.75h42.24c66.99,0,125.97,39.32,135.45,124.52h-68.46
			c-8-38.6-32.76-61.9-88.1-61.9c-79.38,0-105.59,42.24-105.59,107.78v32.03c0,65.54,26.21,107.78,105.59,107.78
			c60.43,0,84.46-26.94,90.29-70.64h67.72c-6.54,91.02-66.99,133.26-136.89,133.26h-42.24c-78.64,0-150-50.25-150-158.75V3006.65z"
			/>
		<path d="M4176.6,3220.73c-103.4,0-153.64-41.51-169.66-112.14h72.81c5.83,25.49,29.13,49.52,97.57,49.52
			c83.02,0,96.86-30.59,96.86-55.35c0-31.31-21.12-38.59-124.52-50.97c-98.3-11.65-128.16-42.24-128.16-95.39
			c0-66.26,55.35-108.5,151.46-108.5c72.82,0,135.44,32.77,151.46,103.4h-72.81c-7.28-25.49-29.13-42.96-85.93-42.96
			c-47.33,0-78.64,18.21-78.64,42.24c0,29.13,25.49,37.14,84.46,42.96c131.81,13.11,168.21,45.87,168.21,109.95
			C4339.72,3173.4,4288.75,3220.73,4176.6,3220.73z"/>
	</g>
</g>
</svg>
